<svg viewBox="0 0 350 100" xmlns="http://www.w3.org/2000/svg" style="max-width:100%; height:auto;">
  <!-- Background with rounded corners -->
  <rect x="0" y="0" width="350" height="100" rx="15" ry="15" fill="#f5f5f5"/>

  <!-- Smartphone Icon (Lighter Grey with Dark Navy Stroke) -->
  <g id="phone" transform="translate(20,15) scale(2)">
    <path fill="#b3b3b3" stroke="#03045e" stroke-width="0.8" d="M1.5,32h16c0.827,0,1.5-0.673,1.5-1.5v-29C19,0.673,18.327,0,17.5,0h-16C0.673,0,0,0.673,0,1.5v29
      C0,31.327,0.673,32,1.5,32z M1,1.5C1,1.224,1.224,1,1.5,1h16C17.776,1,18,1.224,18,1.5v29c0,0.276-0.224,0.5-0.5,0.5h-16
      C1.224,31,1,30.776,1,30.5V1.5z"/>
    <path fill="#b3b3b3" stroke="#03045e" stroke-width="0.6" d="M2.5,27h14c0.276,0,0.5-0.224,0.5-0.5v-21C17,5.224,16.776,5,16.5,5h-14C2.224,5,2,5.224,2,5.5v21
      C2,26.776,2.224,27,2.5,27z"/>
    <circle fill="#b3b3b3" stroke="#03045e" stroke-width="0.6" cx="10" cy="29" r="1"/>
    <path fill="#b3b3b3" stroke="#03045e" stroke-width="0.5" d="M7.5,4h4C11.776,4,12,3.776,12,3.5S11.776,3,11.5,3h-4C7.224,3,7,3.224,7,3.5S7.224,4,7.5,4z"/>
  </g>

  <!-- Signal arcs -->
  <path d="M80 30 q15 -10 30 0" stroke="#48cae4" stroke-width="3" fill="none"/>
  <path d="M80 25 q20 -15 40 0" stroke="#0096c7" stroke-width="2" fill="none"/>
  <path d="M80 20 q25 -20 50 0" stroke="#90e0ef" stroke-width="2" fill="none"/>

  <!-- Logo Text -->
  <text x="100" y="60" font-size="36" font-family="Poppins, sans-serif" font-weight="600" fill="#03045e">
    Who’s
  </text>
  <text x="210" y="60" font-size="36" font-family="Poppins, sans-serif" font-weight="400" fill="#48cae4">
    On Call
  </text>
</svg>